<svg width="420" height="600" viewBox="0 0 420 600" fill="none" xmlns="http://www.w3.org/2000/svg">
<path fill-rule="evenodd" clip-rule="evenodd" d="M40 0H380C402.091 0 420 17.9086 420 40V560C420 582.091 402.091 600 380 600H40C17.9086 600 0 582.091 0 560V40C0 17.9086 17.9086 0 40 0ZM372 24H48C34.7452 24 24 34.7452 24 48V430C24 443.255 34.7452 454 48 454H372C385.255 454 396 443.255 396 430V48C396 34.7452 385.255 24 372 24Z" fill="#24ACF2"/>
<g clip-path="url(#clip0_8_35)">
<mask id="mask0_8_35" style="mask-type:alpha" maskUnits="userSpaceOnUse" x="80" y="114" width="250" height="250">
<path d="M251.923 358.794C256.6 363.472 263.721 364.684 269.682 361.816L321.152 337.065C326.561 334.464 330 328.994 330 322.992V155.16C330 149.159 326.561 143.688 321.152 141.087L269.682 116.335C263.721 113.468 256.6 114.68 251.923 119.357C257.686 113.595 267.538 117.676 267.538 125.825V352.326C267.538 360.476 257.686 364.557 251.923 358.794Z" fill="white"/>
<path d="M257.128 290.412L191.65 239.618L257.128 187.742V131.377C257.128 124.593 249.07 121.038 244.059 125.608L152.902 209.558L110.468 176.64C106.473 173.608 100.884 173.857 97.1731 177.23L83.4079 189.745C78.8687 193.872 78.8636 201.007 83.3952 205.142L244.043 352.462C249.05 357.054 257.128 353.501 257.128 346.707V290.412Z" fill="white"/>
<path d="M115.834 245.05L83.3952 273.012C78.8636 277.146 78.8687 284.283 83.4079 288.408L97.1731 300.923C100.884 304.296 106.473 304.545 110.468 301.513L147.82 274.212L115.834 245.05Z" fill="white"/>
</mask>
<g mask="url(#mask0_8_35)">
<path d="M244.058 125.607C249.07 121.037 257.128 124.593 257.128 131.376V187.741L182.478 246.884L144.037 217.722L244.058 125.607Z" fill="#24ACF2"/>
<path d="M115.834 245.049L83.3952 273.011C78.8636 277.146 78.8687 284.283 83.4079 288.408L97.1731 300.923C100.884 304.296 106.473 304.545 110.468 301.513L147.82 274.211L115.834 245.049Z" fill="#24ACF2"/>
<g filter="url(#filter0_d_8_35)">
<path d="M257.128 290.411L110.468 176.639C106.473 173.607 100.884 173.856 97.1731 177.229L83.4079 189.744C78.8687 193.871 78.8636 201.006 83.3952 205.141L244.035 352.453C249.045 357.048 257.128 353.493 257.128 346.695V290.411Z" fill="#24ACF2"/>
</g>
<g filter="url(#filter1_d_8_35)">
<path d="M269.681 361.818C263.721 364.685 256.599 363.473 251.922 358.796C257.685 364.558 267.538 360.477 267.538 352.327V125.826C267.538 117.677 257.685 113.596 251.922 119.358C256.599 114.681 263.72 113.47 269.681 116.336L321.151 141.088C326.561 143.689 330 149.16 330 155.161V322.993C330 328.995 326.561 334.466 321.151 337.066L269.681 361.818Z" fill="#24ACF2"/>
</g>
</g>
</g>
<path d="M110.041 503.86C111.208 503.86 112.211 504.257 113.051 505.05C113.938 505.797 114.381 506.753 114.381 507.92C114.381 508.527 114.241 509.157 113.961 509.81L96.6715 550.27C96.2515 551.203 95.6448 551.903 94.8515 552.37C94.1048 552.79 93.3348 553 92.5415 553C91.7948 552.953 91.0715 552.72 90.3715 552.3C89.6715 551.833 89.1348 551.18 88.7615 550.34L71.4715 509.74C71.3315 509.46 71.2382 509.18 71.1915 508.9C71.1448 508.573 71.1215 508.27 71.1215 507.99C71.1215 506.637 71.6115 505.61 72.5915 504.91C73.5715 504.163 74.5048 503.79 75.3915 503.79C77.1648 503.79 78.4482 504.7 79.2415 506.52L94.5715 542.57L92.1215 542.64L106.191 506.52C106.985 504.747 108.268 503.86 110.041 503.86ZM136.779 553.7C133.513 553.7 130.573 553.303 127.959 552.51C125.346 551.67 122.849 550.223 120.469 548.17C119.863 547.657 119.396 547.073 119.069 546.42C118.743 545.767 118.579 545.113 118.579 544.46C118.579 543.387 118.953 542.453 119.699 541.66C120.493 540.82 121.473 540.4 122.639 540.4C123.526 540.4 124.319 540.68 125.019 541.24C126.793 542.687 128.543 543.783 130.269 544.53C132.043 545.277 134.213 545.65 136.779 545.65C138.506 545.65 140.093 545.393 141.539 544.88C142.986 544.32 144.153 543.597 145.039 542.71C145.926 541.777 146.369 540.727 146.369 539.56C146.369 538.16 145.949 536.97 145.109 535.99C144.269 535.01 142.986 534.193 141.259 533.54C139.533 532.84 137.339 532.303 134.679 531.93C132.159 531.557 129.943 530.997 128.029 530.25C126.116 529.457 124.506 528.477 123.199 527.31C121.939 526.097 120.983 524.697 120.329 523.11C119.676 521.477 119.349 519.657 119.349 517.65C119.349 514.617 120.119 512.027 121.659 509.88C123.246 507.733 125.369 506.1 128.029 504.98C130.689 503.86 133.629 503.3 136.849 503.3C139.883 503.3 142.683 503.767 145.249 504.7C147.863 505.587 149.986 506.73 151.619 508.13C152.973 509.203 153.649 510.44 153.649 511.84C153.649 512.867 153.253 513.8 152.459 514.64C151.666 515.48 150.733 515.9 149.659 515.9C148.959 515.9 148.329 515.69 147.769 515.27C147.023 514.617 146.019 514.01 144.759 513.45C143.499 512.843 142.169 512.353 140.769 511.98C139.369 511.56 138.063 511.35 136.849 511.35C134.843 511.35 133.139 511.607 131.739 512.12C130.386 512.633 129.359 513.333 128.659 514.22C127.959 515.107 127.609 516.133 127.609 517.3C127.609 518.7 128.006 519.867 128.799 520.8C129.639 521.687 130.829 522.41 132.369 522.97C133.909 523.483 135.753 523.95 137.899 524.37C140.699 524.883 143.149 525.49 145.249 526.19C147.396 526.89 149.169 527.8 150.569 528.92C151.969 529.993 153.019 531.37 153.719 533.05C154.419 534.683 154.769 536.69 154.769 539.07C154.769 542.103 153.929 544.717 152.249 546.91C150.569 549.103 148.353 550.783 145.599 551.95C142.893 553.117 139.953 553.7 136.779 553.7ZM216.716 506.38C217.929 506.987 218.629 507.943 218.816 509.25C219.049 510.557 218.723 511.747 217.836 512.82C217.229 513.66 216.436 514.127 215.456 514.22C214.523 514.313 213.566 514.127 212.586 513.66C211.466 513.147 210.276 512.75 209.016 512.47C207.803 512.19 206.519 512.05 205.166 512.05C202.646 512.05 200.383 512.447 198.376 513.24C196.416 514.033 194.736 515.177 193.336 516.67C191.936 518.117 190.863 519.843 190.116 521.85C189.416 523.857 189.066 526.073 189.066 528.5C189.066 531.347 189.463 533.82 190.256 535.92C191.096 538.02 192.239 539.77 193.686 541.17C195.133 542.57 196.836 543.62 198.796 544.32C200.756 544.973 202.879 545.3 205.166 545.3C206.426 545.3 207.686 545.183 208.946 544.95C210.206 544.717 211.419 544.297 212.586 543.69C213.566 543.223 214.523 543.06 215.456 543.2C216.436 543.34 217.253 543.83 217.906 544.67C218.839 545.837 219.166 547.05 218.886 548.31C218.653 549.523 217.953 550.41 216.786 550.97C215.573 551.577 214.313 552.09 213.006 552.51C211.746 552.883 210.463 553.163 209.156 553.35C207.849 553.583 206.519 553.7 205.166 553.7C201.806 553.7 198.609 553.163 195.576 552.09C192.589 551.017 189.906 549.43 187.526 547.33C185.193 545.23 183.349 542.617 181.996 539.49C180.643 536.317 179.966 532.653 179.966 528.5C179.966 524.907 180.573 521.593 181.786 518.56C183.046 515.527 184.796 512.913 187.036 510.72C189.323 508.48 192.006 506.753 195.086 505.54C198.166 504.28 201.526 503.65 205.166 503.65C207.219 503.65 209.226 503.883 211.186 504.35C213.146 504.817 214.989 505.493 216.716 506.38ZM261.933 534.31C261.933 538.137 261.069 541.52 259.343 544.46C257.663 547.353 255.376 549.617 252.483 551.25C249.636 552.883 246.439 553.7 242.893 553.7C239.346 553.7 236.126 552.883 233.233 551.25C230.386 549.617 228.099 547.353 226.373 544.46C224.693 541.52 223.853 538.137 223.853 534.31C223.853 530.483 224.693 527.123 226.373 524.23C228.099 521.29 230.386 519.003 233.233 517.37C236.126 515.69 239.346 514.85 242.893 514.85C246.439 514.85 249.636 515.69 252.483 517.37C255.376 519.003 257.663 521.29 259.343 524.23C261.069 527.123 261.933 530.483 261.933 534.31ZM253.533 534.31C253.533 531.93 253.043 529.877 252.063 528.15C251.129 526.377 249.846 525 248.213 524.02C246.626 523.04 244.853 522.55 242.893 522.55C240.933 522.55 239.136 523.04 237.503 524.02C235.916 525 234.633 526.377 233.653 528.15C232.719 529.877 232.253 531.93 232.253 534.31C232.253 536.643 232.719 538.697 233.653 540.47C234.633 542.197 235.916 543.55 237.503 544.53C239.136 545.51 240.933 546 242.893 546C244.853 546 246.626 545.51 248.213 544.53C249.846 543.55 251.129 542.197 252.063 540.47C253.043 538.697 253.533 536.643 253.533 534.31ZM299.944 501.2C301.158 501.2 302.161 501.597 302.954 502.39C303.748 503.183 304.144 504.21 304.144 505.47V548.73C304.144 549.943 303.748 550.97 302.954 551.81C302.161 552.603 301.158 553 299.944 553C298.731 553 297.728 552.603 296.934 551.81C296.141 550.97 295.744 549.943 295.744 548.73V545.3L297.284 545.93C297.284 546.537 296.958 547.283 296.304 548.17C295.651 549.01 294.764 549.85 293.644 550.69C292.524 551.53 291.194 552.253 289.654 552.86C288.161 553.42 286.528 553.7 284.754 553.7C281.534 553.7 278.618 552.883 276.004 551.25C273.391 549.57 271.314 547.283 269.774 544.39C268.281 541.45 267.534 538.09 267.534 534.31C267.534 530.483 268.281 527.123 269.774 524.23C271.314 521.29 273.368 519.003 275.934 517.37C278.501 515.69 281.348 514.85 284.474 514.85C286.481 514.85 288.324 515.153 290.004 515.76C291.684 516.367 293.131 517.137 294.344 518.07C295.604 519.003 296.561 519.96 297.214 520.94C297.914 521.873 298.264 522.667 298.264 523.32L295.744 524.23V505.47C295.744 504.257 296.141 503.253 296.934 502.46C297.728 501.62 298.731 501.2 299.944 501.2ZM285.804 546C287.858 546 289.654 545.487 291.194 544.46C292.734 543.433 293.924 542.033 294.764 540.26C295.651 538.487 296.094 536.503 296.094 534.31C296.094 532.07 295.651 530.063 294.764 528.29C293.924 526.517 292.734 525.117 291.194 524.09C289.654 523.063 287.858 522.55 285.804 522.55C283.798 522.55 282.024 523.063 280.484 524.09C278.944 525.117 277.731 526.517 276.844 528.29C276.004 530.063 275.584 532.07 275.584 534.31C275.584 536.503 276.004 538.487 276.844 540.26C277.731 542.033 278.944 543.433 280.484 544.46C282.024 545.487 283.798 546 285.804 546ZM330.879 553.7C326.913 553.7 323.459 552.883 320.519 551.25C317.626 549.57 315.386 547.307 313.799 544.46C312.259 541.613 311.489 538.393 311.489 534.8C311.489 530.6 312.329 527.03 314.009 524.09C315.736 521.103 317.976 518.817 320.729 517.23C323.483 515.643 326.399 514.85 329.479 514.85C331.859 514.85 334.099 515.34 336.199 516.32C338.346 517.3 340.236 518.653 341.869 520.38C343.503 522.06 344.786 524.02 345.719 526.26C346.699 528.5 347.189 530.88 347.189 533.4C347.143 534.52 346.699 535.43 345.859 536.13C345.019 536.83 344.039 537.18 342.919 537.18H316.179L314.079 530.18H339.769L338.229 531.58V529.69C338.136 528.337 337.646 527.123 336.759 526.05C335.919 524.977 334.846 524.137 333.539 523.53C332.279 522.877 330.926 522.55 329.479 522.55C328.079 522.55 326.773 522.737 325.559 523.11C324.346 523.483 323.296 524.113 322.409 525C321.523 525.887 320.823 527.077 320.309 528.57C319.796 530.063 319.539 531.953 319.539 534.24C319.539 536.76 320.053 538.907 321.079 540.68C322.153 542.407 323.506 543.737 325.139 544.67C326.819 545.557 328.593 546 330.459 546C332.186 546 333.563 545.86 334.589 545.58C335.616 545.3 336.433 544.973 337.039 544.6C337.693 544.18 338.276 543.83 338.789 543.55C339.629 543.13 340.423 542.92 341.169 542.92C342.196 542.92 343.036 543.27 343.689 543.97C344.389 544.67 344.739 545.487 344.739 546.42C344.739 547.68 344.086 548.823 342.779 549.85C341.566 550.877 339.863 551.787 337.669 552.58C335.476 553.327 333.213 553.7 330.879 553.7Z" fill="#282C34"/>
<defs>
<filter id="filter0_d_8_35" x="58.6666" y="153.189" width="219.795" height="222.668" filterUnits="userSpaceOnUse" color-interpolation-filters="sRGB">
<feFlood flood-opacity="0" result="BackgroundImageFix"/>
<feColorMatrix in="SourceAlpha" type="matrix" values="0 0 0 0 0 0 0 0 0 0 0 0 0 0 0 0 0 0 127 0" result="hardAlpha"/>
<feOffset/>
<feGaussianBlur stdDeviation="10.6667"/>
<feColorMatrix type="matrix" values="0 0 0 0 0 0 0 0 0 0 0 0 0 0 0 0 0 0 0.15 0"/>
<feBlend mode="normal" in2="BackgroundImageFix" result="effect1_dropShadow_8_35"/>
<feBlend mode="normal" in="SourceGraphic" in2="effect1_dropShadow_8_35" result="shape"/>
</filter>
<filter id="filter1_d_8_35" x="230.588" y="93.4638" width="120.745" height="291.226" filterUnits="userSpaceOnUse" color-interpolation-filters="sRGB">
<feFlood flood-opacity="0" result="BackgroundImageFix"/>
<feColorMatrix in="SourceAlpha" type="matrix" values="0 0 0 0 0 0 0 0 0 0 0 0 0 0 0 0 0 0 127 0" result="hardAlpha"/>
<feOffset/>
<feGaussianBlur stdDeviation="10.6667"/>
<feColorMatrix type="matrix" values="0 0 0 0 0 0 0 0 0 0 0 0 0 0 0 0 0 0 0.25 0"/>
<feBlend mode="overlay" in2="BackgroundImageFix" result="effect1_dropShadow_8_35"/>
<feBlend mode="normal" in="SourceGraphic" in2="effect1_dropShadow_8_35" result="shape"/>
</filter>
<clipPath id="clip0_8_35">
<rect width="250" height="250" fill="white" transform="translate(80 114)"/>
</clipPath>
</defs>
</svg>
