<svg width="420" height="600" viewBox="0 0 420 600" fill="none" xmlns="http://www.w3.org/2000/svg">
<path fill-rule="evenodd" clip-rule="evenodd" d="M40 0H380C402.091 0 420 17.9086 420 40V560C420 582.091 402.091 600 380 600H40C17.9086 600 0 582.091 0 560V40C0 17.9086 17.9086 0 40 0ZM372 24H48C34.7452 24 24 34.7452 24 48V430C24 443.255 34.7452 454 48 454H372C385.255 454 396 443.255 396 430V48C396 34.7452 385.255 24 372 24Z" fill="#0177BD"/>
<path d="M208.476 109.002C197.92 109.051 187.839 109.956 178.969 111.532C152.839 116.17 148.095 125.876 148.095 143.775V167.415H209.843V175.295H124.921C106.976 175.295 91.262 186.131 86.3469 206.743C80.6774 230.37 80.426 245.113 86.3469 269.783C90.7362 288.146 101.218 301.231 119.164 301.231H140.394V272.892C140.394 252.418 158.029 234.359 178.969 234.359H240.645C257.814 234.359 271.519 220.159 271.519 202.839V143.775C271.519 126.965 257.402 114.338 240.645 111.532C230.038 109.759 219.032 108.953 208.476 109.002ZM175.083 128.015C181.461 128.015 186.67 133.333 186.67 139.871C186.67 146.387 181.461 151.655 175.083 151.655C168.682 151.655 163.496 146.387 163.496 139.871C163.496 133.333 168.682 128.015 175.083 128.015Z" fill="#0177BD"/>
<path d="M279.22 175.295V202.839C279.22 224.193 261.197 242.167 240.645 242.167H178.969C162.075 242.167 148.095 256.691 148.095 273.687V332.751C148.095 349.561 162.646 359.448 178.969 364.271C198.515 370.044 217.259 371.087 240.645 364.271C256.19 359.749 271.519 350.65 271.519 332.751V309.111H209.843V301.231H302.393C320.339 301.231 327.026 288.656 333.267 269.783C339.714 250.353 339.44 231.668 333.267 206.743C328.832 188.797 320.362 175.295 302.393 175.295H279.22ZM244.531 324.871C250.932 324.871 256.118 330.139 256.118 336.654C256.118 343.193 250.932 348.511 244.531 348.511C238.153 348.511 232.945 343.193 232.945 336.654C232.945 330.139 238.153 324.871 244.531 324.871Z" fill="#FEC208"/>
<path d="M107.43 497.8C110.064 497.8 112.522 498.56 114.802 500.08C117.132 501.6 119.007 503.652 120.426 506.236C121.844 508.82 122.554 511.708 122.554 514.9C122.554 518.041 121.844 520.904 120.426 523.488C119.007 526.072 117.132 528.149 114.802 529.72C112.522 531.24 110.064 532 107.43 532H93.4456L94.2056 530.632V546.364C94.2056 547.681 93.8003 548.796 92.9896 549.708C92.179 550.569 91.115 551 89.7976 551C88.531 551 87.4923 550.569 86.6816 549.708C85.871 548.796 85.4656 547.681 85.4656 546.364V502.436C85.4656 501.119 85.8963 500.029 86.7576 499.168C87.6696 498.256 88.7843 497.8 90.1016 497.8H107.43ZM107.43 523.336C108.392 523.336 109.33 522.931 110.242 522.12C111.154 521.309 111.914 520.271 112.522 519.004C113.13 517.687 113.434 516.319 113.434 514.9C113.434 513.431 113.13 512.063 112.522 510.796C111.914 509.529 111.154 508.516 110.242 507.756C109.33 506.945 108.392 506.54 107.43 506.54H93.2936L94.2056 505.172V524.552L93.3696 523.336H107.43ZM161.413 510.34C162.73 510.34 163.819 510.796 164.681 511.708C165.542 512.569 165.973 513.659 165.973 514.976V547.276C165.973 551.937 165.086 555.636 163.313 558.372C161.59 561.159 159.259 563.16 156.321 564.376C153.382 565.592 150.089 566.2 146.441 566.2C144.819 566.2 143.097 566.073 141.273 565.82C139.449 565.567 137.954 565.187 136.789 564.68C135.269 564.021 134.205 563.185 133.597 562.172C133.039 561.209 132.938 560.171 133.293 559.056C133.749 557.587 134.483 556.573 135.497 556.016C136.51 555.509 137.574 555.459 138.689 555.864C139.499 556.117 140.563 556.497 141.881 557.004C143.198 557.561 144.718 557.84 146.441 557.84C148.771 557.84 150.697 557.511 152.217 556.852C153.787 556.244 154.953 555.18 155.713 553.66C156.523 552.191 156.929 550.164 156.929 547.58V542.488L158.525 544.312C157.663 545.984 156.574 547.377 155.257 548.492C153.99 549.556 152.47 550.367 150.697 550.924C148.923 551.481 146.897 551.76 144.617 551.76C141.931 551.76 139.575 551.152 137.549 549.936C135.573 548.669 134.027 546.947 132.913 544.768C131.798 542.539 131.241 540.005 131.241 537.168V514.976C131.241 513.659 131.671 512.569 132.533 511.708C133.394 510.796 134.483 510.34 135.801 510.34C137.118 510.34 138.207 510.796 139.069 511.708C139.93 512.569 140.361 513.659 140.361 514.976V534.432C140.361 537.725 141.07 540.056 142.489 541.424C143.958 542.741 145.985 543.4 148.569 543.4C150.342 543.4 151.837 543.071 153.053 542.412C154.269 541.703 155.206 540.689 155.865 539.372C156.523 538.004 156.853 536.357 156.853 534.432V514.976C156.853 513.659 157.283 512.569 158.145 511.708C159.006 510.796 160.095 510.34 161.413 510.34ZM176.302 511.1H194.314C195.53 511.1 196.544 511.505 197.354 512.316C198.165 513.127 198.57 514.14 198.57 515.356C198.57 516.521 198.165 517.509 197.354 518.32C196.544 519.08 195.53 519.46 194.314 519.46H176.302C175.086 519.46 174.073 519.055 173.262 518.244C172.452 517.433 172.046 516.42 172.046 515.204C172.046 514.039 172.452 513.076 173.262 512.316C174.073 511.505 175.086 511.1 176.302 511.1ZM184.434 501.6C185.752 501.6 186.816 502.056 187.626 502.968C188.488 503.829 188.918 504.919 188.918 506.236V540.056C188.918 540.765 189.045 541.348 189.298 541.804C189.602 542.26 189.982 542.589 190.438 542.792C190.945 542.995 191.477 543.096 192.034 543.096C192.642 543.096 193.2 542.995 193.706 542.792C194.213 542.539 194.796 542.412 195.454 542.412C196.164 542.412 196.797 542.741 197.354 543.4C197.962 544.059 198.266 544.971 198.266 546.136C198.266 547.555 197.481 548.72 195.91 549.632C194.39 550.544 192.744 551 190.97 551C189.906 551 188.716 550.924 187.398 550.772C186.132 550.569 184.916 550.139 183.75 549.48C182.636 548.771 181.698 547.707 180.938 546.288C180.178 544.869 179.798 542.919 179.798 540.436V506.236C179.798 504.919 180.229 503.829 181.09 502.968C182.002 502.056 183.117 501.6 184.434 501.6ZM228.3 509.58C231.948 509.58 234.709 510.365 236.584 511.936C238.509 513.507 239.827 515.609 240.536 518.244C241.245 520.828 241.6 523.716 241.6 526.908V546.364C241.6 547.681 241.169 548.796 240.308 549.708C239.447 550.569 238.357 551 237.04 551C235.723 551 234.633 550.569 233.772 549.708C232.911 548.796 232.48 547.681 232.48 546.364V526.908C232.48 525.236 232.277 523.741 231.872 522.424C231.467 521.056 230.732 519.967 229.668 519.156C228.604 518.345 227.084 517.94 225.108 517.94C223.183 517.94 221.536 518.345 220.168 519.156C218.8 519.967 217.761 521.056 217.052 522.424C216.393 523.741 216.064 525.236 216.064 526.908V546.364C216.064 547.681 215.633 548.796 214.772 549.708C213.911 550.569 212.821 551 211.504 551C210.187 551 209.097 550.569 208.236 549.708C207.375 548.796 206.944 547.681 206.944 546.364V499.396C206.944 498.079 207.375 496.989 208.236 496.128C209.097 495.216 210.187 494.76 211.504 494.76C212.821 494.76 213.911 495.216 214.772 496.128C215.633 496.989 216.064 498.079 216.064 499.396V518.244L214.924 518.016C215.38 517.155 216.013 516.243 216.824 515.28C217.635 514.267 218.623 513.329 219.788 512.468C220.953 511.607 222.245 510.923 223.664 510.416C225.083 509.859 226.628 509.58 228.3 509.58ZM290.919 530.708C290.919 534.863 289.982 538.536 288.107 541.728C286.283 544.869 283.8 547.327 280.659 549.1C277.568 550.873 274.098 551.76 270.247 551.76C266.396 551.76 262.9 550.873 259.759 549.1C256.668 547.327 254.186 544.869 252.311 541.728C250.487 538.536 249.575 534.863 249.575 530.708C249.575 526.553 250.487 522.905 252.311 519.764C254.186 516.572 256.668 514.089 259.759 512.316C262.9 510.492 266.396 509.58 270.247 509.58C274.098 509.58 277.568 510.492 280.659 512.316C283.8 514.089 286.283 516.572 288.107 519.764C289.982 522.905 290.919 526.553 290.919 530.708ZM281.799 530.708C281.799 528.124 281.267 525.895 280.203 524.02C279.19 522.095 277.796 520.6 276.023 519.536C274.3 518.472 272.375 517.94 270.247 517.94C268.119 517.94 266.168 518.472 264.395 519.536C262.672 520.6 261.279 522.095 260.215 524.02C259.202 525.895 258.695 528.124 258.695 530.708C258.695 533.241 259.202 535.471 260.215 537.396C261.279 539.271 262.672 540.74 264.395 541.804C266.168 542.868 268.119 543.4 270.247 543.4C272.375 543.4 274.3 542.868 276.023 541.804C277.796 540.74 279.19 539.271 280.203 537.396C281.267 535.471 281.799 533.241 281.799 530.708ZM320.637 509.58C324.386 509.58 327.224 510.365 329.149 511.936C331.125 513.507 332.468 515.609 333.177 518.244C333.937 520.828 334.317 523.716 334.317 526.908V546.364C334.317 547.681 333.886 548.796 333.025 549.708C332.164 550.569 331.074 551 329.757 551C328.44 551 327.35 550.569 326.489 549.708C325.628 548.796 325.197 547.681 325.197 546.364V526.908C325.197 525.236 324.969 523.741 324.513 522.424C324.108 521.056 323.348 519.967 322.233 519.156C321.118 518.345 319.522 517.94 317.445 517.94C315.418 517.94 313.696 518.345 312.277 519.156C310.909 519.967 309.845 521.056 309.085 522.424C308.376 523.741 308.021 525.236 308.021 526.908V546.364C308.021 547.681 307.59 548.796 306.729 549.708C305.868 550.569 304.778 551 303.461 551C302.144 551 301.054 550.569 300.193 549.708C299.332 548.796 298.901 547.681 298.901 546.364V514.976C298.901 513.659 299.332 512.569 300.193 511.708C301.054 510.796 302.144 510.34 303.461 510.34C304.778 510.34 305.868 510.796 306.729 511.708C307.59 512.569 308.021 513.659 308.021 514.976V518.244L306.881 518.016C307.337 517.155 307.996 516.243 308.857 515.28C309.718 514.267 310.732 513.329 311.897 512.468C313.062 511.607 314.38 510.923 315.849 510.416C317.318 509.859 318.914 509.58 320.637 509.58Z" fill="white"/>
</svg>
