<svg width="420" height="600" viewBox="0 0 420 600" fill="none" xmlns="http://www.w3.org/2000/svg">
<path fill-rule="evenodd" clip-rule="evenodd" d="M40 0H380C402.091 0 420 17.9086 420 40V560C420 582.091 402.091 600 380 600H40C17.9086 600 0 582.091 0 560V40C0 17.9086 17.9086 0 40 0ZM372 24H48C34.7452 24 24 34.7452 24 48V430C24 443.255 34.7452 454 48 454H372C385.255 454 396 443.255 396 430V48C396 34.7452 385.255 24 372 24Z" fill="#F82929"/>
<path d="M107.596 360.018C107.596 360.351 107.789 360.814 108.02 361.045L115.527 368.566C115.762 368.802 116.225 368.992 116.552 368.992H142.24C142.572 368.992 143.034 368.798 143.265 368.566L150.772 361.045C151.008 360.81 151.197 360.347 151.197 360.018V278.355C151.197 278.022 151.394 277.563 151.633 277.336L184.27 246.107C184.509 245.879 184.858 245.913 185.043 246.191L267.501 368.499C267.686 368.773 268.11 369 268.438 369H304.83C305.162 369 305.557 368.76 305.708 368.465L312.312 355.645C312.463 355.351 312.433 354.888 312.244 354.614L215.793 214.545C215.604 214.271 215.642 213.859 215.877 213.623L304.59 125.158C304.826 124.922 305.015 124.463 305.015 124.131V122.498C305.015 122.165 304.905 121.648 304.775 121.34L299.659 109.551C299.528 109.248 299.146 109 298.818 109H262.847C262.515 109 262.053 109.194 261.822 109.425L151.629 220.243C151.394 220.479 151.205 220.399 151.205 220.067V118.403C151.205 118.07 151.02 117.603 150.793 117.359L143.429 109.446C143.202 109.202 142.749 109.004 142.417 109.004H116.552C116.22 109.004 115.767 109.202 115.54 109.446L107.999 117.603C107.772 117.847 107.592 118.314 107.592 118.647V360.018H107.596Z" fill="#F82929"/>
<path d="M147.109 548C145.691 548 144.551 547.417 143.689 546.252L126.133 523.148L133.049 516.08L151.213 540.096C151.923 541.059 152.277 542.097 152.277 543.212C152.277 544.631 151.745 545.796 150.681 546.708C149.617 547.569 148.427 548 147.109 548ZM148.021 494.42C149.237 494.42 150.225 494.927 150.985 495.94C151.796 496.903 152.201 497.891 152.201 498.904C152.201 499.968 151.745 500.956 150.833 501.868L118.989 532.344L118.609 521.476L144.297 496.168C145.463 495.003 146.704 494.42 148.021 494.42ZM115.189 548C113.771 548 112.631 547.569 111.769 546.708C110.908 545.796 110.477 544.681 110.477 543.364V499.436C110.477 498.119 110.933 497.029 111.845 496.168C112.757 495.256 113.923 494.8 115.341 494.8C116.76 494.8 117.875 495.256 118.685 496.168C119.547 497.029 119.977 498.119 119.977 499.436V543.364C119.977 544.681 119.547 545.796 118.685 546.708C117.824 547.569 116.659 548 115.189 548ZM177.037 548.76C172.731 548.76 168.981 547.873 165.789 546.1C162.648 544.276 160.216 541.819 158.493 538.728C156.821 535.637 155.985 532.141 155.985 528.24C155.985 523.68 156.897 519.804 158.721 516.612C160.596 513.369 163.028 510.887 166.017 509.164C169.007 507.441 172.173 506.58 175.517 506.58C178.101 506.58 180.533 507.112 182.813 508.176C185.144 509.24 187.196 510.709 188.969 512.584C190.743 514.408 192.136 516.536 193.149 518.968C194.213 521.4 194.745 523.984 194.745 526.72C194.695 527.936 194.213 528.924 193.301 529.684C192.389 530.444 191.325 530.824 190.109 530.824H161.077L158.797 523.224H186.689L185.017 524.744V522.692C184.916 521.223 184.384 519.905 183.421 518.74C182.509 517.575 181.344 516.663 179.925 516.004C178.557 515.295 177.088 514.94 175.517 514.94C173.997 514.94 172.579 515.143 171.261 515.548C169.944 515.953 168.804 516.637 167.841 517.6C166.879 518.563 166.119 519.855 165.561 521.476C165.004 523.097 164.725 525.149 164.725 527.632C164.725 530.368 165.283 532.699 166.397 534.624C167.563 536.499 169.032 537.943 170.805 538.956C172.629 539.919 174.555 540.4 176.581 540.4C178.456 540.4 179.951 540.248 181.065 539.944C182.18 539.64 183.067 539.285 183.725 538.88C184.435 538.424 185.068 538.044 185.625 537.74C186.537 537.284 187.399 537.056 188.209 537.056C189.324 537.056 190.236 537.436 190.945 538.196C191.705 538.956 192.085 539.843 192.085 540.856C192.085 542.224 191.376 543.465 189.957 544.58C188.64 545.695 186.791 546.683 184.409 547.544C182.028 548.355 179.571 548.76 177.037 548.76ZM207.273 548C205.956 548 204.867 547.569 204.005 546.708C203.144 545.796 202.713 544.681 202.713 543.364V511.976C202.713 510.659 203.144 509.569 204.005 508.708C204.867 507.796 205.956 507.34 207.273 507.34C208.591 507.34 209.68 507.796 210.541 508.708C211.403 509.569 211.833 510.659 211.833 511.976V519.12L211.301 514.028C211.859 512.812 212.568 511.748 213.429 510.836C214.341 509.873 215.355 509.088 216.469 508.48C217.584 507.821 218.775 507.34 220.041 507.036C221.308 506.732 222.575 506.58 223.841 506.58C225.361 506.58 226.628 507.011 227.641 507.872C228.705 508.733 229.237 509.747 229.237 510.912C229.237 512.584 228.807 513.8 227.945 514.56C227.084 515.269 226.147 515.624 225.133 515.624C224.171 515.624 223.284 515.447 222.473 515.092C221.713 514.737 220.827 514.56 219.813 514.56C218.901 514.56 217.964 514.788 217.001 515.244C216.089 515.649 215.228 516.308 214.417 517.22C213.657 518.132 213.024 519.272 212.517 520.64C212.061 521.957 211.833 523.528 211.833 525.352V543.364C211.833 544.681 211.403 545.796 210.541 546.708C209.68 547.569 208.591 548 207.273 548ZM268.064 506.58C269.381 506.58 270.471 507.011 271.332 507.872C272.193 508.733 272.624 509.848 272.624 511.216V543.364C272.624 544.681 272.193 545.796 271.332 546.708C270.471 547.569 269.381 548 268.064 548C266.747 548 265.657 547.569 264.796 546.708C263.935 545.796 263.504 544.681 263.504 543.364V539.64L265.176 540.324C265.176 540.983 264.821 541.793 264.112 542.756C263.403 543.668 262.44 544.58 261.224 545.492C260.008 546.404 258.564 547.189 256.892 547.848C255.271 548.456 253.497 548.76 251.572 548.76C248.076 548.76 244.909 547.873 242.072 546.1C239.235 544.276 236.98 541.793 235.308 538.652C233.687 535.46 232.876 531.812 232.876 527.708C232.876 523.553 233.687 519.905 235.308 516.764C236.98 513.572 239.209 511.089 241.996 509.316C244.783 507.492 247.873 506.58 251.268 506.58C253.447 506.58 255.448 506.909 257.272 507.568C259.096 508.227 260.667 509.063 261.984 510.076C263.352 511.089 264.391 512.128 265.1 513.192C265.86 514.205 266.24 515.067 266.24 515.776L263.504 516.764V511.216C263.504 509.899 263.935 508.809 264.796 507.948C265.657 507.036 266.747 506.58 268.064 506.58ZM252.712 540.4C254.941 540.4 256.892 539.843 258.564 538.728C260.236 537.613 261.528 536.093 262.44 534.168C263.403 532.243 263.884 530.089 263.884 527.708C263.884 525.276 263.403 523.097 262.44 521.172C261.528 519.247 260.236 517.727 258.564 516.612C256.892 515.497 254.941 514.94 252.712 514.94C250.533 514.94 248.608 515.497 246.936 516.612C245.264 517.727 243.947 519.247 242.984 521.172C242.072 523.097 241.616 525.276 241.616 527.708C241.616 530.089 242.072 532.243 242.984 534.168C243.947 536.093 245.264 537.613 246.936 538.728C248.608 539.843 250.533 540.4 252.712 540.4ZM280.143 541.692C279.636 540.983 279.408 540.071 279.459 538.956C279.509 537.841 280.168 536.879 281.435 536.068C282.245 535.561 283.107 535.359 284.019 535.46C284.931 535.511 285.817 535.967 286.679 536.828C288.148 538.297 289.693 539.437 291.315 540.248C292.936 541.059 294.963 541.464 297.395 541.464C298.155 541.413 298.991 541.312 299.903 541.16C300.815 540.957 301.6 540.552 302.259 539.944C302.968 539.285 303.323 538.297 303.323 536.98C303.323 535.865 302.943 534.979 302.183 534.32C301.423 533.661 300.409 533.104 299.143 532.648C297.927 532.192 296.559 531.761 295.039 531.356C293.468 530.9 291.847 530.393 290.175 529.836C288.553 529.279 287.059 528.569 285.691 527.708C284.323 526.796 283.208 525.605 282.347 524.136C281.485 522.667 281.055 520.817 281.055 518.588C281.055 516.055 281.764 513.901 283.183 512.128C284.601 510.355 286.425 508.987 288.655 508.024C290.935 507.061 293.316 506.58 295.799 506.58C297.369 506.58 299.016 506.783 300.739 507.188C302.461 507.543 304.108 508.151 305.679 509.012C307.249 509.823 308.567 510.912 309.631 512.28C310.188 513.04 310.517 513.952 310.619 515.016C310.72 516.08 310.239 517.043 309.175 517.904C308.415 518.512 307.528 518.791 306.515 518.74C305.501 518.639 304.665 518.284 304.007 517.676C303.145 516.561 301.98 515.675 300.511 515.016C299.092 514.357 297.445 514.028 295.571 514.028C294.811 514.028 293.975 514.129 293.063 514.332C292.201 514.484 291.441 514.864 290.783 515.472C290.124 516.029 289.795 516.941 289.795 518.208C289.795 519.373 290.175 520.311 290.935 521.02C291.695 521.679 292.708 522.236 293.975 522.692C295.292 523.097 296.685 523.503 298.155 523.908C299.675 524.313 301.22 524.795 302.791 525.352C304.361 525.909 305.805 526.644 307.123 527.556C308.44 528.468 309.504 529.659 310.315 531.128C311.125 532.547 311.531 534.371 311.531 536.6C311.531 539.184 310.771 541.388 309.251 543.212C307.731 545.036 305.831 546.429 303.551 547.392C301.271 548.304 298.94 548.76 296.559 548.76C293.569 548.76 290.58 548.253 287.591 547.24C284.601 546.176 282.119 544.327 280.143 541.692Z" fill="white"/>
</svg>
