<svg width="420" height="600" viewBox="0 0 420 600" fill="none" xmlns="http://www.w3.org/2000/svg">
<path fill-rule="evenodd" clip-rule="evenodd" d="M40 0H380C402.091 0 420 17.9086 420 40V560C420 582.091 402.091 600 380 600H40C17.9086 600 0 582.091 0 560V40C0 17.9086 17.9086 0 40 0ZM372 24H48C34.7452 24 24 34.7452 24 48V430C24 443.255 34.7452 454 48 454H372C385.255 454 396 443.255 396 430V48C396 34.7452 385.255 24 372 24Z" fill="#FFCC00"/>
<path d="M198.088 109.293C191.835 110.412 185.684 113.818 180.498 119.054C174.296 125.256 171.958 132.068 171.551 145.133C171.246 153.826 172.06 177.415 172.975 187.684C173.483 193.581 173.483 194.089 172.466 196.631C170.484 201.562 165.349 209.239 153.046 225.608C149.437 230.387 146.031 237.504 141.151 250.569C138.456 257.788 135.66 264.397 133.983 267.345C130.729 273.09 129.763 275.937 129.356 281.122C129.051 285.189 129.814 289.256 130.882 289.256C131.237 289.205 132.051 288.9 132.762 288.494C133.474 288.087 134.999 287.782 136.219 287.731C142.777 287.68 148.827 294.035 164.129 317.013C175.211 333.637 177.499 338.111 179.024 346.346C180.448 354.073 177.601 358.954 170.229 361.496C165.044 363.326 161.333 362.767 144.963 357.988C139.219 356.31 128.848 353.768 121.833 352.294C108.412 349.498 105.26 348.532 104.294 346.702C103.48 345.228 103.887 343.55 106.175 338.161C108.818 332.061 108.818 328.858 106.073 322.809C104.955 320.318 104.04 317.42 103.887 315.895C103.684 313.556 103.785 313.2 105.056 312.235C106.276 311.269 107.09 311.116 111.665 311.116C118.63 311.116 121.629 310.201 124.679 307.1C127.272 304.558 128.187 302.169 128.136 298.407C128.085 295.56 127.272 293.171 127.221 295.763C127.17 298.254 125.95 300.644 123.612 302.931C120.663 305.778 117.969 306.897 112.682 307.558C105.107 308.422 104.345 308.625 102.769 309.947C101.396 311.116 101.244 311.472 101.244 314.319C101.244 316.047 101.701 319.301 102.209 321.589C104.141 329.468 104.09 330.027 101.803 336.89C97.1257 350.718 98.6 352.243 121.172 356.361C130.831 358.14 135.813 359.462 147.759 363.478C159.757 367.494 162.4 368.155 166.162 368.104C170.128 368.054 174.042 366.376 179.583 362.36C184.362 358.954 189.192 357.073 195.445 356.31C202.308 355.395 236.623 355.395 239.114 356.259C241.757 357.225 243.384 358.598 245.366 361.75C247.552 365.156 250.704 367.24 255.331 368.257C262.092 369.833 270.277 368.816 273.581 366.02C287.256 354.429 291.374 351.582 302.914 345.838C312.065 341.262 317.809 337.399 319.385 334.806C319.894 333.942 320.351 332.366 320.351 331.248C320.351 327.689 318.419 325.655 310.895 321.131C307.642 319.148 304.185 315.793 302.914 313.353C301.745 310.964 300.525 306.897 299.813 302.881L299.203 299.169L298.288 300.898C297.068 303.236 297.119 309.337 298.389 313.455C300.016 318.64 301.999 320.978 306.523 323.063C313.539 326.316 314.861 327.13 316.335 328.909C320.046 333.332 316.691 336.331 301.694 341.923C292.086 345.533 287.612 347.871 281.969 352.294C271.446 360.428 268.396 361.953 262.804 361.953C259.245 361.953 256.652 360.987 254.365 358.75C250.349 354.938 249.433 350.616 250.552 340.856C251.772 329.977 251.569 321.182 249.942 313.658C248.264 306.134 248.366 301.254 250.196 296.933C252.687 291.188 256.449 292.306 260.262 299.983C263.414 306.337 266.261 308.218 272.768 308.168C278.258 308.168 282.02 306.287 286.138 301.61C288.781 298.559 291.781 295.509 295.492 292.103C297.322 290.324 298.034 287.731 298.339 281.071C298.898 269.379 294.729 253.518 286.748 237.097C282.783 228.963 279.986 224.744 273.378 217.068C261.278 202.935 256.347 193.123 252.941 176.449C251.874 171.365 251.518 167.654 251.162 158.351C250.654 144.167 249.891 140.609 245.214 131.407C237.843 116.715 225.743 109.547 207.493 109.039C203.731 108.937 199.512 109.039 198.088 109.293ZM228.997 125.612C232.81 128.306 232.759 129.628 228.895 129.628C228.082 129.628 226.506 130.34 225.286 131.204C223.71 132.373 222.998 132.627 222.541 132.17C222.134 131.763 222.236 131.204 222.897 130.085C223.354 129.221 223.761 127.645 223.761 126.578C223.761 125.205 224.066 124.443 224.676 124.087C225.896 123.324 225.845 123.324 228.997 125.612ZM222.947 146.506C224.218 146.913 225.947 148.082 227.421 149.505C230.573 152.657 232.149 157.385 232.149 163.689C232.149 169.738 231.793 170.653 229.404 171.314C225.947 172.229 224.676 170.857 226.048 167.603C227.014 165.265 227.014 162.926 226.048 160.028C224.828 156.572 222.846 154.945 219.44 154.64C216.847 154.436 216.593 154.487 214.915 156.165C213.949 157.131 212.932 158.808 212.627 159.876C212.017 162.113 211.916 166.993 212.526 168.417C212.932 169.484 219.948 172.789 225.998 174.822C228.844 175.737 230.319 176.551 231.03 177.567C232.2 179.092 232.251 178.126 230.268 188.955C229.455 193.123 230.42 196.224 234.132 201.664C238.554 208.171 241.35 214.526 243.333 222.66C244.045 225.557 244.706 226.981 246.129 228.658C252.331 235.674 256.093 249.197 257.212 268.21C257.923 279.953 258.635 281.224 264.227 280.411C268.243 279.902 269.972 278.072 271.344 272.734C272.158 269.684 272.259 261.296 271.497 256.72C270.277 249.044 264.38 235.216 258.787 226.828C256.5 223.422 256.398 223.219 257.822 224.286C262.244 227.54 268.955 237.809 271.192 244.774C272.971 250.213 274.699 260.025 274.699 264.854C274.75 269.074 273.835 275.073 272.818 277.665C272.564 278.326 273.022 278.784 274.699 279.648C277.292 280.919 280.19 283.054 280.19 283.613C280.19 283.867 278.868 283.512 277.241 282.851C268.345 279.241 258.381 282.037 256.703 288.595C256.246 290.527 255.991 290.781 254.67 290.781C251.314 290.781 248.518 292.967 246.79 296.882C245.468 299.983 245.366 307.405 246.637 317.217C247.908 327.384 247.858 329.062 245.57 341.618C243.587 352.345 243.638 352.294 242.672 352.294C241.401 352.294 240.029 350.718 240.029 349.244C240.029 348.481 240.842 345.177 241.859 341.822C243.994 334.755 244.756 326.367 243.486 324.639C242.367 323.164 240.842 324.029 238.351 327.536C235.504 331.502 232.2 334.603 228.997 336.179C222.998 339.229 214.102 341.161 205.459 341.262C197.681 341.313 193.411 340.093 188.988 336.585C186.751 334.806 185.684 334.654 184.159 335.874L183.04 336.789L184.362 338.568C186.294 341.11 188.48 345.634 188.887 347.82C189.293 349.956 188.378 352.548 186.751 353.972C185.735 354.938 185.684 354.938 185.43 353.209C185.277 352.294 185.074 350.057 184.921 348.278C184.565 344.414 183.142 341.161 179.278 335.213C177.753 332.874 176.482 330.841 176.482 330.688C176.482 330.587 177.347 330.231 178.414 329.926C180.6 329.214 182.837 327.282 183.955 325.147C184.972 323.164 184.667 318.386 183.345 316.708C182.837 315.996 177.245 311.218 170.992 306.032C155.639 293.425 147.709 286.104 146.183 283.105C142.371 275.53 141.913 264.244 145.218 260.025C145.929 259.11 145.98 259.262 145.624 262.567C145.014 267.854 145.319 272.836 146.488 276.598C147.912 281.275 151.521 285.596 153.402 284.833C154.724 284.325 155.182 281.529 155.588 271.717C155.995 261.804 156.046 261.397 157.978 255.704C160.52 248.078 166.671 235.776 169.314 233.03C171.297 230.895 171.297 230.895 170.636 228.963C168.908 224.185 169.874 220.067 175.11 209.544C178.058 203.596 179.024 201.156 179.278 198.766C179.482 197.089 179.787 195.716 179.99 195.716C180.549 195.716 182.583 198.055 185.379 201.817C190.157 208.273 192.75 210.459 195.75 210.459C197.834 210.459 202.613 207.866 209.526 202.986C212.729 200.698 217.66 197.597 220.456 196.123C224.727 193.784 225.54 193.123 225.54 192.107C225.54 191.09 225.235 190.836 223.862 190.734C222.592 190.582 220.812 191.344 216.237 193.886C206.273 199.376 201.291 200.952 196.207 200.291C193.106 199.834 191.123 198.97 188.734 196.936C185.989 194.648 186.497 194.343 193.004 194.598C196.563 194.75 199.766 194.598 201.24 194.242C204.646 193.378 225.337 185.091 226.455 184.125C227.726 183.007 227.37 181.278 225.794 181.075C224.879 180.973 224.066 181.431 222.846 182.702C220.965 184.684 216.389 186.616 207.645 189.158C200.172 191.293 191.53 191.802 188.073 190.226C186.802 189.666 185.023 188.294 184.159 187.175C183.244 186.057 181.515 184.43 180.244 183.566C179.024 182.651 178.007 181.583 178.007 181.126C178.007 179.296 179.787 176.754 182.278 175.178C183.701 174.263 186.446 171.924 188.378 169.993L191.886 166.536V163.638C191.835 160.334 190.31 156.419 188.785 155.606C185.989 154.131 182.329 155.555 181.058 158.605C179.736 161.859 181.515 168.467 183.905 169.077C185.328 169.433 185.43 170.094 184.26 171.416C182.786 173.043 181.617 172.534 180.295 169.637C177.55 163.638 177.601 157.639 180.448 151.996C182.074 148.743 183.854 147.319 186.243 147.319C188.887 147.319 191.022 148.641 192.496 151.234C194.224 154.182 194.834 156.47 195.241 161.401L195.546 165.468L200.122 165.773C202.663 165.926 205.205 166.332 205.815 166.637C206.883 167.247 206.883 167.247 206.832 161.503C206.73 156.317 206.832 155.555 208.052 152.962C210.696 147.37 216.847 144.676 222.947 146.506ZM222.998 158.656C223.812 159.673 224.269 160.74 224.167 161.554C223.964 163.435 222.947 163.485 222.592 161.655C222.388 160.791 221.676 159.571 220.965 158.91C219.745 157.741 219.745 157.08 221.016 157.08C221.371 157.08 222.236 157.792 222.998 158.656ZM188.48 159.368C189.293 160.588 189.7 163.892 189.09 164.502C188.378 165.163 187.666 164.045 187.666 162.164C187.666 160.944 187.412 160.13 186.904 159.927C185.938 159.571 185.887 158.097 186.904 158.097C187.311 158.097 188.022 158.656 188.48 159.368ZM247.552 190.887C250.196 191.446 251.162 194.699 249.23 196.428C247.908 197.597 246.587 197.14 243.841 194.648C240.995 192.056 239.673 189.056 240.486 187.277L241.096 185.955L243.536 188.243C244.858 189.463 246.688 190.683 247.552 190.887ZM156.91 234.2C156.3 236.691 155.029 238.978 153.758 239.792C153.097 240.249 152.436 240.503 152.335 240.351C151.877 239.893 155.843 232.827 156.554 232.827C157.063 232.827 157.164 233.183 156.91 234.2Z" fill="#FFCC00"/>
<path d="M152.306 540.342C153.589 540.342 154.65 540.761 155.488 541.6C156.376 542.389 156.82 543.425 156.82 544.708C156.82 545.941 156.376 546.977 155.488 547.816C154.65 548.605 153.589 549 152.306 549H128.256C126.974 549 125.888 548.581 125 547.742C124.162 546.854 123.742 545.769 123.742 544.486V501.714C123.742 500.431 124.186 499.371 125.074 498.532C125.962 497.644 127.097 497.2 128.478 497.2C129.662 497.2 130.698 497.644 131.586 498.532C132.524 499.371 132.992 500.431 132.992 501.714V541.6L131.364 540.342H152.306ZM172.917 544.486C172.917 545.769 172.498 546.854 171.659 547.742C170.82 548.581 169.76 549 168.477 549C167.194 549 166.134 548.581 165.295 547.742C164.456 546.854 164.037 545.769 164.037 544.486V513.924C164.037 512.641 164.456 511.581 165.295 510.742C166.134 509.854 167.194 509.41 168.477 509.41C169.76 509.41 170.82 509.854 171.659 510.742C172.498 511.581 172.917 512.641 172.917 513.924V544.486ZM168.403 504.6C166.726 504.6 165.542 504.329 164.851 503.786C164.16 503.243 163.815 502.281 163.815 500.9V499.494C163.815 498.063 164.185 497.101 164.925 496.608C165.714 496.065 166.898 495.794 168.477 495.794C170.204 495.794 171.412 496.065 172.103 496.608C172.794 497.151 173.139 498.113 173.139 499.494V500.9C173.139 502.331 172.769 503.317 172.029 503.86C171.289 504.353 170.08 504.6 168.403 504.6ZM203.207 508.67C206.858 508.67 209.621 509.435 211.495 510.964C213.419 512.493 214.727 514.541 215.417 517.106C216.157 519.622 216.527 522.434 216.527 525.542V544.486C216.527 545.769 216.108 546.854 215.269 547.742C214.431 548.581 213.37 549 212.087 549C210.805 549 209.744 548.581 208.905 547.742C208.067 546.854 207.647 545.769 207.647 544.486V525.542C207.647 523.914 207.425 522.459 206.981 521.176C206.587 519.844 205.847 518.783 204.761 517.994C203.676 517.205 202.122 516.81 200.099 516.81C198.126 516.81 196.449 517.205 195.067 517.994C193.735 518.783 192.699 519.844 191.959 521.176C191.269 522.459 190.923 523.914 190.923 525.542V544.486C190.923 545.769 190.504 546.854 189.665 547.742C188.827 548.581 187.766 549 186.483 549C185.201 549 184.14 548.581 183.301 547.742C182.463 546.854 182.043 545.769 182.043 544.486V513.924C182.043 512.641 182.463 511.581 183.301 510.742C184.14 509.854 185.201 509.41 186.483 509.41C187.766 509.41 188.827 509.854 189.665 510.742C190.504 511.581 190.923 512.641 190.923 513.924V517.106L189.813 516.884C190.257 516.045 190.899 515.157 191.737 514.22C192.576 513.233 193.563 512.321 194.697 511.482C195.832 510.643 197.115 509.977 198.545 509.484C199.976 508.941 201.53 508.67 203.207 508.67ZM255.503 509.41C256.786 509.41 257.847 509.854 258.685 510.742C259.524 511.581 259.943 512.641 259.943 513.924V532.72C259.943 537.949 258.488 542.093 255.577 545.152C252.667 548.211 248.473 549.74 242.997 549.74C237.521 549.74 233.328 548.211 230.417 545.152C227.556 542.093 226.125 537.949 226.125 532.72V513.924C226.125 512.641 226.545 511.581 227.383 510.742C228.222 509.854 229.283 509.41 230.565 509.41C231.848 509.41 232.909 509.854 233.747 510.742C234.586 511.581 235.005 512.641 235.005 513.924V532.72C235.005 535.729 235.671 537.974 237.003 539.454C238.335 540.885 240.333 541.6 242.997 541.6C245.711 541.6 247.733 540.885 249.065 539.454C250.397 537.974 251.063 535.729 251.063 532.72V513.924C251.063 512.641 251.483 511.581 252.321 510.742C253.16 509.854 254.221 509.41 255.503 509.41ZM270.371 509.41C271.802 509.41 273.01 510.027 273.997 511.26L298.713 541.97C299.354 542.759 299.675 543.647 299.675 544.634C299.675 545.867 299.206 546.928 298.269 547.816C297.332 548.704 296.296 549.148 295.161 549.148C293.73 549.148 292.522 548.507 291.535 547.224L266.819 516.514C266.178 515.725 265.857 514.837 265.857 513.85C265.857 512.567 266.301 511.507 267.189 510.668C268.126 509.829 269.187 509.41 270.371 509.41ZM270.445 549.074C269.458 549.074 268.472 548.704 267.485 547.964C266.548 547.175 266.079 546.237 266.079 545.152C266.079 544.165 266.449 543.228 267.189 542.34L278.511 528.502L282.951 535.902L273.997 547.224C273.06 548.457 271.876 549.074 270.445 549.074ZM295.087 509.41C296.271 509.41 297.258 509.829 298.047 510.668C298.886 511.457 299.305 512.37 299.305 513.406C299.305 513.899 299.231 514.393 299.083 514.886C298.935 515.379 298.664 515.848 298.269 516.292L287.095 529.908L282.433 523.47L291.535 511.408C292.522 510.076 293.706 509.41 295.087 509.41Z" fill="#282C34"/>
</svg>
