<svg width="420" height="600" viewBox="0 0 420 600" fill="none" xmlns="http://www.w3.org/2000/svg">
<path fill-rule="evenodd" clip-rule="evenodd" d="M40 0H380C402.091 0 420 17.9086 420 40V560C420 582.091 402.091 600 380 600H40C17.9086 600 0 582.091 0 560V40C0 17.9086 17.9086 0 40 0ZM372 24H48C34.7452 24 24 34.7452 24 48V430C24 443.255 34.7452 454 48 454H372C385.255 454 396 443.255 396 430V48C396 34.7452 385.255 24 372 24Z" fill="#EA4335"/>
<g clip-path="url(#clip0_8_139)">
<path d="M212.592 215.363V265.709H282.336C279.273 281.9 270.083 295.61 256.299 304.828L298.358 337.565C322.863 314.874 337 281.547 337 241.956C337 232.738 336.175 223.873 334.644 215.365L212.592 215.363Z" fill="#4285F4"/>
<path d="M139.964 263.744L130.479 271.028L96.9019 297.264C118.226 339.691 161.93 369.001 212.589 369.001C247.578 369.001 276.913 357.419 298.355 337.565L256.296 304.828C244.751 312.628 230.024 317.356 212.589 317.356C178.895 317.356 150.268 294.547 140.017 263.819L139.964 263.744Z" fill="#34A853"/>
<path d="M96.9022 180.736C88.0668 198.227 83.0015 217.963 83.0015 238.999C83.0015 260.036 88.0668 279.772 96.9022 297.263C96.9022 297.38 140.022 263.699 140.022 263.699C137.43 255.899 135.898 247.627 135.898 238.998C135.898 230.37 137.43 222.097 140.022 214.297L96.9022 180.736Z" fill="#FBBC05"/>
<path d="M212.592 160.764C231.677 160.764 248.642 167.382 262.19 180.146L299.3 142.919C276.798 121.883 247.582 109 212.592 109C161.933 109 118.226 138.191 96.9019 180.737L140.02 214.301C150.269 183.573 178.898 160.764 212.592 160.764Z" fill="#EA4335"/>
</g>
<path d="M109.878 548.76C106.027 548.76 102.43 548.051 99.0857 546.632C95.7417 545.213 92.803 543.263 90.2697 540.78C87.7363 538.247 85.735 535.333 84.2657 532.04C82.847 528.747 82.1377 525.2 82.1377 521.4C82.1377 517.6 82.847 514.053 84.2657 510.76C85.735 507.467 87.7363 504.579 90.2697 502.096C92.803 499.563 95.7417 497.587 99.0857 496.168C102.43 494.749 106.027 494.04 109.878 494.04C112.259 494.04 114.564 494.293 116.794 494.8C119.023 495.307 121.075 496.067 122.95 497.08C123.71 497.485 124.267 498.043 124.622 498.752C125.027 499.411 125.23 500.095 125.23 500.804C125.23 502.02 124.824 503.109 124.014 504.072C123.203 505.035 122.164 505.516 120.898 505.516C120.492 505.516 120.062 505.465 119.606 505.364C119.2 505.263 118.795 505.111 118.39 504.908C117.123 504.351 115.78 503.92 114.362 503.616C112.943 503.312 111.448 503.16 109.878 503.16C106.584 503.16 103.57 503.996 100.834 505.668C98.1483 507.289 95.995 509.493 94.3737 512.28C92.803 515.016 92.0177 518.056 92.0177 521.4C92.0177 524.693 92.803 527.733 94.3737 530.52C95.995 533.307 98.1483 535.536 100.834 537.208C103.57 538.829 106.584 539.64 109.878 539.64C111.398 539.64 113.07 539.488 114.894 539.184C116.718 538.88 118.212 538.475 119.378 537.968L118.694 540.248V527.252L119.986 528.392H111.55C110.232 528.392 109.118 527.961 108.206 527.1C107.344 526.239 106.914 525.149 106.914 523.832C106.914 522.515 107.344 521.425 108.206 520.564C109.118 519.703 110.232 519.272 111.55 519.272H124.014C125.331 519.272 126.42 519.728 127.282 520.64C128.143 521.501 128.574 522.591 128.574 523.908V540.02C128.574 541.033 128.32 541.869 127.814 542.528C127.358 543.187 126.826 543.719 126.218 544.124C123.887 545.543 121.328 546.683 118.542 547.544C115.806 548.355 112.918 548.76 109.878 548.76ZM176.4 527.708C176.4 531.863 175.462 535.536 173.588 538.728C171.764 541.869 169.281 544.327 166.14 546.1C163.049 547.873 159.578 548.76 155.728 548.76C151.877 548.76 148.381 547.873 145.24 546.1C142.149 544.327 139.666 541.869 137.792 538.728C135.968 535.536 135.056 531.863 135.056 527.708C135.056 523.553 135.968 519.905 137.792 516.764C139.666 513.572 142.149 511.089 145.24 509.316C148.381 507.492 151.877 506.58 155.728 506.58C159.578 506.58 163.049 507.492 166.14 509.316C169.281 511.089 171.764 513.572 173.588 516.764C175.462 519.905 176.4 523.553 176.4 527.708ZM167.28 527.708C167.28 525.124 166.748 522.895 165.684 521.02C164.67 519.095 163.277 517.6 161.504 516.536C159.781 515.472 157.856 514.94 155.728 514.94C153.6 514.94 151.649 515.472 149.876 516.536C148.153 517.6 146.76 519.095 145.696 521.02C144.682 522.895 144.176 525.124 144.176 527.708C144.176 530.241 144.682 532.471 145.696 534.396C146.76 536.271 148.153 537.74 149.876 538.804C151.649 539.868 153.6 540.4 155.728 540.4C157.856 540.4 159.781 539.868 161.504 538.804C163.277 537.74 164.67 536.271 165.684 534.396C166.748 532.471 167.28 530.241 167.28 527.708ZM223.825 527.708C223.825 531.863 222.888 535.536 221.013 538.728C219.189 541.869 216.707 544.327 213.565 546.1C210.475 547.873 207.004 548.76 203.153 548.76C199.303 548.76 195.807 547.873 192.665 546.1C189.575 544.327 187.092 541.869 185.217 538.728C183.393 535.536 182.481 531.863 182.481 527.708C182.481 523.553 183.393 519.905 185.217 516.764C187.092 513.572 189.575 511.089 192.665 509.316C195.807 507.492 199.303 506.58 203.153 506.58C207.004 506.58 210.475 507.492 213.565 509.316C216.707 511.089 219.189 513.572 221.013 516.764C222.888 519.905 223.825 523.553 223.825 527.708ZM214.705 527.708C214.705 525.124 214.173 522.895 213.109 521.02C212.096 519.095 210.703 517.6 208.929 516.536C207.207 515.472 205.281 514.94 203.153 514.94C201.025 514.94 199.075 515.472 197.301 516.536C195.579 517.6 194.185 519.095 193.121 521.02C192.108 522.895 191.601 525.124 191.601 527.708C191.601 530.241 192.108 532.471 193.121 534.396C194.185 536.271 195.579 537.74 197.301 538.804C199.075 539.868 201.025 540.4 203.153 540.4C205.281 540.4 207.207 539.868 208.929 538.804C210.703 537.74 212.096 536.271 213.109 534.396C214.173 532.471 214.705 530.241 214.705 527.708ZM248.679 506.58C250.807 506.58 252.758 506.909 254.531 507.568C256.305 508.227 257.825 509.063 259.091 510.076C260.409 511.089 261.422 512.128 262.131 513.192C262.891 514.205 263.271 515.067 263.271 515.776L261.295 516.764V511.216C261.295 509.899 261.726 508.809 262.587 507.948C263.449 507.036 264.538 506.58 265.855 506.58C267.173 506.58 268.262 507.011 269.123 507.872C269.985 508.733 270.415 509.848 270.415 511.216V545.036C270.415 549.444 269.453 552.965 267.527 555.6C265.653 558.285 263.17 560.211 260.079 561.376C256.989 562.592 253.67 563.2 250.123 563.2C249.11 563.2 247.793 563.073 246.171 562.82C244.55 562.567 243.005 562.263 241.535 561.908C240.066 561.553 238.951 561.224 238.191 560.92C236.671 560.261 235.607 559.425 234.999 558.412C234.442 557.449 234.341 556.411 234.695 555.296C235.151 553.827 235.886 552.813 236.899 552.256C237.913 551.749 238.977 551.699 240.091 552.104C240.598 552.256 241.434 552.56 242.599 553.016C243.765 553.472 245.031 553.877 246.399 554.232C247.818 554.637 249.059 554.84 250.123 554.84C253.923 554.84 256.735 554.08 258.559 552.56C260.383 551.04 261.295 548.937 261.295 546.252V539.64L262.207 540.324C262.207 540.983 261.853 541.793 261.143 542.756C260.485 543.668 259.547 544.58 258.331 545.492C257.166 546.404 255.773 547.189 254.151 547.848C252.53 548.456 250.807 548.76 248.983 548.76C245.386 548.76 242.143 547.873 239.255 546.1C236.367 544.276 234.087 541.793 232.415 538.652C230.743 535.46 229.907 531.812 229.907 527.708C229.907 523.553 230.743 519.905 232.415 516.764C234.087 513.572 236.342 511.089 239.179 509.316C242.017 507.492 245.183 506.58 248.679 506.58ZM250.123 514.94C247.843 514.94 245.842 515.497 244.119 516.612C242.397 517.727 241.054 519.247 240.091 521.172C239.129 523.097 238.647 525.276 238.647 527.708C238.647 530.089 239.129 532.243 240.091 534.168C241.054 536.093 242.397 537.613 244.119 538.728C245.842 539.843 247.843 540.4 250.123 540.4C252.454 540.4 254.481 539.843 256.203 538.728C257.926 537.613 259.269 536.093 260.231 534.168C261.194 532.243 261.675 530.089 261.675 527.708C261.675 525.276 261.194 523.097 260.231 521.172C259.269 519.247 257.926 517.727 256.203 516.612C254.481 515.497 252.454 514.94 250.123 514.94ZM290.152 543.364C290.152 544.681 289.696 545.796 288.784 546.708C287.923 547.569 286.833 548 285.516 548C284.249 548 283.185 547.569 282.324 546.708C281.463 545.796 281.032 544.681 281.032 543.364V496.396C281.032 495.079 281.463 493.989 282.324 493.128C283.236 492.216 284.351 491.76 285.668 491.76C286.985 491.76 288.049 492.216 288.86 493.128C289.721 493.989 290.152 495.079 290.152 496.396V543.364ZM319.166 548.76C314.86 548.76 311.11 547.873 307.918 546.1C304.777 544.276 302.345 541.819 300.622 538.728C298.95 535.637 298.114 532.141 298.114 528.24C298.114 523.68 299.026 519.804 300.85 516.612C302.725 513.369 305.157 510.887 308.146 509.164C311.136 507.441 314.302 506.58 317.646 506.58C320.23 506.58 322.662 507.112 324.942 508.176C327.273 509.24 329.325 510.709 331.098 512.584C332.872 514.408 334.265 516.536 335.278 518.968C336.342 521.4 336.874 523.984 336.874 526.72C336.824 527.936 336.342 528.924 335.43 529.684C334.518 530.444 333.454 530.824 332.238 530.824H303.206L300.926 523.224H328.818L327.146 524.744V522.692C327.045 521.223 326.513 519.905 325.55 518.74C324.638 517.575 323.473 516.663 322.054 516.004C320.686 515.295 319.217 514.94 317.646 514.94C316.126 514.94 314.708 515.143 313.39 515.548C312.073 515.953 310.933 516.637 309.97 517.6C309.008 518.563 308.248 519.855 307.69 521.476C307.133 523.097 306.854 525.149 306.854 527.632C306.854 530.368 307.412 532.699 308.526 534.624C309.692 536.499 311.161 537.943 312.934 538.956C314.758 539.919 316.684 540.4 318.71 540.4C320.585 540.4 322.08 540.248 323.194 539.944C324.309 539.64 325.196 539.285 325.854 538.88C326.564 538.424 327.197 538.044 327.754 537.74C328.666 537.284 329.528 537.056 330.338 537.056C331.453 537.056 332.365 537.436 333.074 538.196C333.834 538.956 334.214 539.843 334.214 540.856C334.214 542.224 333.505 543.465 332.086 544.58C330.769 545.695 328.92 546.683 326.538 547.544C324.157 548.355 321.7 548.76 319.166 548.76Z" fill="white"/>
<defs>
<clipPath id="clip0_8_139">
<rect width="254" height="260" fill="white" transform="translate(83 109)"/>
</clipPath>
</defs>
</svg>
