<svg width="420" height="600" viewBox="0 0 420 600" fill="none" xmlns="http://www.w3.org/2000/svg">
<path fill-rule="evenodd" clip-rule="evenodd" d="M40 0H380C402.091 0 420 17.9086 420 40V560C420 582.091 402.091 600 380 600H40C17.9086 600 0 582.091 0 560V40C0 17.9086 17.9086 0 40 0ZM372 24H48C34.7452 24 24 34.7452 24 48V430C24 443.255 34.7452 454 48 454H372C385.255 454 396 443.255 396 430V48C396 34.7452 385.255 24 372 24Z" fill="#FDD932"/>
<path d="M199.055 121.485C203.78 112.838 216.22 112.838 220.945 121.485L253.773 181.559C255.566 184.84 258.743 187.144 262.424 187.831L329.816 200.427C339.516 202.239 343.361 214.048 336.581 221.205L289.477 270.927C286.904 273.643 285.691 277.37 286.173 281.076L294.996 348.934C296.266 358.702 286.201 366 277.286 361.776L215.346 332.432C211.963 330.83 208.037 330.83 204.654 332.432L142.714 361.776C133.799 366 123.734 358.702 125.004 348.934L133.827 281.076C134.309 277.37 133.096 273.643 130.523 270.927L83.4194 221.205C76.6395 214.048 80.4838 202.239 90.184 200.427L157.576 187.831C161.257 187.144 164.434 184.84 166.227 181.559L199.055 121.485Z" fill="#FDD932"/>
<path d="M161.576 547.66C158.496 547.66 155.724 547.286 153.26 546.538C150.796 545.746 148.442 544.382 146.198 542.446C145.626 541.962 145.186 541.412 144.878 540.796C144.57 540.18 144.416 539.564 144.416 538.948C144.416 537.936 144.768 537.056 145.472 536.308C146.22 535.516 147.144 535.12 148.244 535.12C149.08 535.12 149.828 535.384 150.488 535.912C152.16 537.276 153.81 538.31 155.438 539.014C157.11 539.718 159.156 540.07 161.576 540.07C163.204 540.07 164.7 539.828 166.064 539.344C167.428 538.816 168.528 538.134 169.364 537.298C170.2 536.418 170.618 535.428 170.618 534.328C170.618 533.008 170.222 531.886 169.43 530.962C168.638 530.038 167.428 529.268 165.8 528.652C164.172 527.992 162.104 527.486 159.596 527.134C157.22 526.782 155.13 526.254 153.326 525.55C151.522 524.802 150.004 523.878 148.772 522.778C147.584 521.634 146.682 520.314 146.066 518.818C145.45 517.278 145.142 515.562 145.142 513.67C145.142 510.81 145.868 508.368 147.32 506.344C148.816 504.32 150.818 502.78 153.326 501.724C155.834 500.668 158.606 500.14 161.642 500.14C164.502 500.14 167.142 500.58 169.562 501.46C172.026 502.296 174.028 503.374 175.568 504.694C176.844 505.706 177.482 506.872 177.482 508.192C177.482 509.16 177.108 510.04 176.36 510.832C175.612 511.624 174.732 512.02 173.72 512.02C173.06 512.02 172.466 511.822 171.938 511.426C171.234 510.81 170.288 510.238 169.1 509.71C167.912 509.138 166.658 508.676 165.338 508.324C164.018 507.928 162.786 507.73 161.642 507.73C159.75 507.73 158.144 507.972 156.824 508.456C155.548 508.94 154.58 509.6 153.92 510.436C153.26 511.272 152.93 512.24 152.93 513.34C152.93 514.66 153.304 515.76 154.052 516.64C154.844 517.476 155.966 518.158 157.418 518.686C158.87 519.17 160.608 519.61 162.632 520.006C165.272 520.49 167.582 521.062 169.562 521.722C171.586 522.382 173.258 523.24 174.578 524.296C175.898 525.308 176.888 526.606 177.548 528.19C178.208 529.73 178.538 531.622 178.538 533.866C178.538 536.726 177.746 539.19 176.162 541.258C174.578 543.326 172.488 544.91 169.892 546.01C167.34 547.11 164.568 547.66 161.576 547.66ZM185.843 512.35H201.485C202.541 512.35 203.421 512.702 204.125 513.406C204.829 514.11 205.181 514.99 205.181 516.046C205.181 517.058 204.829 517.916 204.125 518.62C203.421 519.28 202.541 519.61 201.485 519.61H185.843C184.787 519.61 183.907 519.258 183.203 518.554C182.499 517.85 182.147 516.97 182.147 515.914C182.147 514.902 182.499 514.066 183.203 513.406C183.907 512.702 184.787 512.35 185.843 512.35ZM192.905 504.1C194.049 504.1 194.973 504.496 195.677 505.288C196.425 506.036 196.799 506.982 196.799 508.126V537.496C196.799 538.112 196.909 538.618 197.129 539.014C197.393 539.41 197.723 539.696 198.119 539.872C198.559 540.048 199.021 540.136 199.505 540.136C200.033 540.136 200.517 540.048 200.957 539.872C201.397 539.652 201.903 539.542 202.475 539.542C203.091 539.542 203.641 539.828 204.125 540.4C204.653 540.972 204.917 541.764 204.917 542.776C204.917 544.008 204.235 545.02 202.871 545.812C201.551 546.604 200.121 547 198.581 547C197.657 547 196.623 546.934 195.479 546.802C194.379 546.626 193.323 546.252 192.311 545.68C191.343 545.064 190.529 544.14 189.869 542.908C189.209 541.676 188.879 539.982 188.879 537.826V508.126C188.879 506.982 189.253 506.036 190.001 505.288C190.793 504.496 191.761 504.1 192.905 504.1ZM241.361 511.03C242.505 511.03 243.451 511.404 244.199 512.152C244.947 512.9 245.321 513.868 245.321 515.056V542.974C245.321 544.118 244.947 545.086 244.199 545.878C243.451 546.626 242.505 547 241.361 547C240.217 547 239.271 546.626 238.523 545.878C237.775 545.086 237.401 544.118 237.401 542.974V539.74L238.853 540.334C238.853 540.906 238.545 541.61 237.929 542.446C237.313 543.238 236.477 544.03 235.421 544.822C234.365 545.614 233.111 546.296 231.659 546.868C230.251 547.396 228.711 547.66 227.039 547.66C224.003 547.66 221.253 546.89 218.789 545.35C216.325 543.766 214.367 541.61 212.915 538.882C211.507 536.11 210.803 532.942 210.803 529.378C210.803 525.77 211.507 522.602 212.915 519.874C214.367 517.102 216.303 514.946 218.723 513.406C221.143 511.822 223.827 511.03 226.775 511.03C228.667 511.03 230.405 511.316 231.989 511.888C233.573 512.46 234.937 513.186 236.081 514.066C237.269 514.946 238.171 515.848 238.787 516.772C239.447 517.652 239.777 518.4 239.777 519.016L237.401 519.874V515.056C237.401 513.912 237.775 512.966 238.523 512.218C239.271 511.426 240.217 511.03 241.361 511.03ZM228.029 540.4C229.965 540.4 231.659 539.916 233.111 538.948C234.563 537.98 235.685 536.66 236.477 534.988C237.313 533.316 237.731 531.446 237.731 529.378C237.731 527.266 237.313 525.374 236.477 523.702C235.685 522.03 234.563 520.71 233.111 519.742C231.659 518.774 229.965 518.29 228.029 518.29C226.137 518.29 224.465 518.774 223.013 519.742C221.561 520.71 220.417 522.03 219.581 523.702C218.789 525.374 218.393 527.266 218.393 529.378C218.393 531.446 218.789 533.316 219.581 534.988C220.417 536.66 221.561 537.98 223.013 538.948C224.465 539.916 226.137 540.4 228.029 540.4ZM257.856 547C256.712 547 255.766 546.626 255.018 545.878C254.27 545.086 253.896 544.118 253.896 542.974V515.716C253.896 514.572 254.27 513.626 255.018 512.878C255.766 512.086 256.712 511.69 257.856 511.69C259 511.69 259.946 512.086 260.694 512.878C261.442 513.626 261.816 514.572 261.816 515.716V521.92L261.354 517.498C261.838 516.442 262.454 515.518 263.202 514.726C263.994 513.89 264.874 513.208 265.842 512.68C266.81 512.108 267.844 511.69 268.944 511.426C270.044 511.162 271.144 511.03 272.244 511.03C273.564 511.03 274.664 511.404 275.544 512.152C276.468 512.9 276.93 513.78 276.93 514.792C276.93 516.244 276.556 517.3 275.808 517.96C275.06 518.576 274.246 518.884 273.366 518.884C272.53 518.884 271.76 518.73 271.056 518.422C270.396 518.114 269.626 517.96 268.746 517.96C267.954 517.96 267.14 518.158 266.304 518.554C265.512 518.906 264.764 519.478 264.06 520.27C263.4 521.062 262.85 522.052 262.41 523.24C262.014 524.384 261.816 525.748 261.816 527.332V542.974C261.816 544.118 261.442 545.086 260.694 545.878C259.946 546.626 259 547 257.856 547Z" fill="#282C34"/>
</svg>
